<?xml version="1.0" encoding="UTF-8"?>
<!-- Generator: Adobe Illustrator 25.4.1, SVG Export Plug-In . SVG Version: 6.00 Build 0)  -->
<svg preserveAspectRatio="xMidYMid slice" width="800px" height="500px" xmlns="http://www.w3.org/2000/svg" xmlns:xlink="http://www.w3.org/1999/xlink" version="1.1" id="bkgrnd" x="0px" y="0px" viewBox="0 0 3200 2000" style="enable-background:new 0 0 3200 2000;" xml:space="preserve">
<style type="text/css">
	.st0{fill:#2F0929;}
	.st1{fill:#D6133A;}
	.st2{fill:#E2E6CE;}
</style>
<rect y="0" class="st0" width="3200" height="2000"></rect>
<path class="st1" d="M2086.8,1005.4c-86.1,110.3-186.8,184.9-423.8,193.4c-170.3,6.1-342.7-27.6-438.5-224.8  c-46.3-95.2-51.8-167.7-87-223.5c-34.9-55.4-140.3-63.6-187.6-35c-74.3,44.9-103,117.3-94.7,213.6  c9.3,107.8,102.4,217.5,191.2,297.7c208.9,188.6,422.6,185.2,596,172.8c192.5-13.8,360-116.3,442.2-202.1  c123.9-129.2,204.4-334,166.9-370.7C2212.8,788.6,2170.6,898.1,2086.8,1005.4z"></path>
<path class="st2" d="M990.4,829.1v18c-17.3,2.7-25.9,19.3-25.9,49.8v211.4h-76.6L728.8,874.1v162.3c0,13.8,1,24.5,3,32.1  c2,7.6,4.9,12.9,8.6,16c3.7,3.1,8.5,5,14.3,5.8l1.2,17.9h-93.7l1.2-17.9c17.3-2.7,25.9-19.3,25.9-49.9V876.1  c0-17.8-8.6-27.5-25.9-29.1l1.6-18h134.4L925,1013.7V900.8c0-19.4-2.4-32.9-7.2-40.5c-4.8-7.6-11-12-18.7-13.4l0.4-18L990.4,829.1z"></path>
<path class="st2" d="M1132.2,1102.3c-14.8,8.8-29.1,13.2-42.9,13.2c-11.6,0-23-2.8-33.3-8.2c-10.8-5.4-19.7-14.5-26.7-27.3  c-7.1-12.8-10.6-29.3-10.6-49.5v-72.2c0-13-1.4-23.1-4.2-30.1c-2.8-7.1-5.6-11.7-8.4-14c-4.9-3.7-10-7.1-15.4-10.2  c7.2-9.3,17.9-16.3,32.1-20.9c14-4.6,28.6-7,43.3-7c12.8,0,22.6,1.6,29.5,4.8v150c0,18.9,2.3,32,6.8,39.3c4.5,7.3,9.7,11,15.6,11  c8,0,15.4-4.2,22.1-12.6c6.8-8.4,12.1-19.3,16.2-32.9c4-13.6,6-27.7,6-41.9v-35.5c0-13-1.4-23.1-4.2-30.1c-2.8-7.1-5.6-11.7-8.4-14  c-4.9-3.7-10.1-7.1-15.4-10.2c7.2-9.3,17.9-16.3,32.1-20.9c14-4.6,28.6-7,43.3-7c12.8,0,22.6,1.6,29.5,4.8v155.5  c0,19.4,2.4,32.9,7.2,40.5c4.8,7.6,11,12,18.7,13.4h0.4l0.8,17.9h-104.1v-36.7C1156.9,1083.2,1146.9,1093.5,1132.2,1102.3z"></path>
<path class="st2" d="M1428.3,1082.7c-10.9,12.2-21.7,20.7-32.3,25.5s-23,7.2-37.1,7.2c-17.6,0-32-4.5-43.5-13.4  c-11.4-8.9-17.1-21.6-17.2-38.1V908.8h-27.9v-19.9c17-5.6,31.6-12.4,43.7-20.3c12.1-8,22-16,29.7-24.1c8.9-9.6,17.3-19.6,25.1-30.1  h9.2v66.6h42.3v27.9H1378v140.4c0,9.6,1.4,16.7,4.2,21.3s6.5,7,11,7c3.4-0.1,6.7-1.2,9.6-3c3.6-2.1,6.9-4.9,9.6-8.2L1428.3,1082.7z"></path>
<path class="st2" d="M1543.1,1076.7c4.8,7.7,11,12.2,18.7,13.6l1.2,17.9h-130.8l1.2-17.9c17.3-2.7,25.9-19.3,25.9-49.9v-70.2  c0-34-8.4-56.1-25.1-66.2c7.2-9.3,17.6-16.3,31.3-20.9c13.4-4.6,27.5-7,41.7-7c12.2,0,21.8,1.6,28.7,4.8v42.3  c12-22.1,27.2-40.5,45.5-55.4c18.3-14.9,36.5-21.9,54.6-21.1c17.5,0.5,30.7,4.9,39.5,13c8.8,8.1,13.2,18,13.2,29.7  c-0.2,15.7-8.1,30.2-21.1,38.9c-6.7,4.4-14.7,6.7-22.7,6.6c-12.2,0-22-3.3-29.3-10c-7.3-6.7-11-14.1-11-22.3c0-4.1,1.1-8.1,3.2-11.6  c-10.1-0.3-20.4,5.3-30.9,16.5c-10.5,11.3-19.5,25.5-27.1,42.5c-7.6,17-12.2,33-13.8,47.9v38.7  C1536,1055.6,1538.4,1069,1543.1,1076.7z M1708.2,1108.2H1577l1.2-17.9c17.3-2.7,25.9-19.3,25.9-49.9V983  c-0.1-12.4-2.4-24.7-6.8-36.3l-0.8-3.6c0-2.9,1.5-4.4,4.4-4.4c2.7,0,5.3,1.2,7.2,3.2c3.4,2.9,8.4,5.5,15,7.6  c6.5,2.1,13.3,3.2,20.1,3.2c6.6,0,13.3-1,19.6-3.2c6.1-2.1,10.9-4.7,14.4-7.6c3.7-3.2,6.8-4.8,9.2-4.8c1.9,0,2.8,1.3,2.8,4l-0.8,4  c-0.3,0.8-1.5,4.7-3.8,11.6s-3.4,15.7-3.4,26.3v53.4c0,19.1,2.4,32.6,7.2,40.3s11,12.2,18.8,13.6L1708.2,1108.2z"></path>
<path class="st2" d="M1870.2,1082.7c-10.9,12.2-21.7,20.7-32.3,25.5c-10.6,4.8-23,7.2-37.1,7.2c-17.6,0-32-4.5-43.5-13.4  s-17.1-21.6-17.2-38.1V908.8h-27.9v-19.9c17-5.6,31.6-12.4,43.7-20.3c12.1-8,22-16,29.7-24.1c8.9-9.6,17.3-19.6,25.1-30.1h9.2v66.6  h42.3v27.9h-42.3v140.4c0,9.6,1.4,16.7,4.2,21.3c2.8,4.7,6.5,7,11,7c3.4-0.1,6.7-1.2,9.6-3c3.6-2.1,6.9-4.9,9.6-8.2L1870.2,1082.7z"></path>
<path class="st2" d="M2005.4,1108.2h-131.2l1.2-17.9c17.3-2.7,25.9-19.3,25.9-49.9v-70.2c0-34-8.4-56.1-25.1-66.2  c7.2-9.3,17.6-16.3,31.3-20.9c13.5-4.6,27.8-7,42.1-7c12.2,0,21.8,1.6,28.7,4.8v155.5c0,19.4,2.4,32.9,7.2,40.5  c4.8,7.6,11,12,18.8,13.4L2005.4,1108.2z M1910.3,843.4c-7.6-7.7-11.4-17.1-11.4-28.3c0.1-2.9,0.3-5.9,0.8-8.8  c1.9-10.7,7.5-20.5,15.8-27.5c8.4-7.2,17.7-10.8,28.1-10.8c10.6-0.2,20.8,4,28.1,11.8c7.5,7.6,11.6,17.9,11.4,28.5  c0,13.3-4.4,24.4-13.2,33.3c-8.8,8.9-19.3,13.4-31.5,13.4C1927.2,855,1917.8,851.1,1910.3,843.4z"></path>
<path class="st2" d="M2065.4,1096.5c-17.5-10.1-31.9-24.9-41.5-42.7c-9.7-17.9-14.6-37.8-14.6-59.6s4.9-41.7,14.6-59.6  c9.5-17.8,23.9-32.5,41.5-42.5c18-10.4,38.9-15.6,62.8-15.6c23.9,0,44.8,5.2,62.6,15.6c17.5,10,31.8,24.7,41.3,42.5  c9.7,18,14.6,37.8,14.6,59.6c0,21.8-4.8,41.7-14.6,59.6c-9.5,17.8-23.8,32.6-41.3,42.7c-17.8,10.5-38.7,15.8-62.6,15.8  C2104.3,1112.2,2083.3,1107,2065.4,1096.5z M2147.4,1072.5c5.9-8.1,10.6-19.1,14.2-33.1c3.7-14.8,5.5-30,5.4-45.3  c0.1-15.2-1.7-30.3-5.4-45.1c-3.6-13.8-8.3-24.9-14.2-33.1c-5.8-8.2-12.2-12.4-19.1-12.4c-6.9,0-13.3,4.1-19.1,12.4  c-5.9,8.2-10.5,19.3-14,33.1c-3.6,14.8-5.3,29.9-5.2,45.1c-0.1,15.2,1.6,30.4,5.2,45.3c3.5,14,8.1,25,14,33.1  c5.9,8.1,12.3,12.2,19.1,12.2C2135.2,1084.7,2141.5,1080.7,2147.4,1072.5L2147.4,1072.5z"></path>
<path class="st2" d="M2415,1076.9c4.8-7.6,7.2-21.1,7.2-40.5v-78.2c0-18.9-2.3-32-6.8-39.3s-9.7-11-15.6-11c-8,0-15.4,4.2-22.1,12.6  c-6.8,8.4-12.1,19.3-16.1,32.9c-4,13.6-6,27.7-6,41.9v41.1c0,19.4,2.4,32.9,7.2,40.5s11,12,18.8,13.4v17.9h-130l1.2-17.9  c7.7-1.3,14-5.8,18.7-13.4s7.2-21.1,7.2-40.5v-78.1c0-13-1.4-23.1-4.2-30.1c-2.8-7.1-5.6-11.7-8.4-14c-4.9-3.7-10.1-7.1-15.4-10.2  c7.2-9.3,17.9-16.3,32.1-20.9c14-4.6,28.6-7,43.3-7c12.8,0,22.6,1.6,29.5,4.8v36.8c5.3-11.7,15.4-21.9,30.1-30.7  c14.7-8.8,29-13.2,42.9-13.2c11.6,0,23,2.8,33.3,8.2c10.8,5.5,19.7,14.6,26.7,27.3s10.6,29.2,10.6,49.5v77.8  c0,19.4,2.4,32.9,7.2,40.5s11,12,18.7,13.4l1.2,17.9h-130v-17.9C2403.9,1089,2410.2,1084.5,2415,1076.9z"></path>
<path class="st2" d="M1024.1,1309.4l-53.7-59.1v59.1H941v-132h29.4v55.2l44.8-55.2h36.2l-52,63.4l62.6,68.6L1024.1,1309.4z"></path>
<path class="st2" d="M1156.6,1309.4v-132h29.6v132H1156.6z"></path>
<path class="st2" d="M1323.3,1309.4v-103.7h-33.7v-28.2h97.4v28.2h-34v103.7L1323.3,1309.4z"></path>
<path class="st2" d="M1546.4,1311.6c-18.8,0-34.9-6.7-48.2-20c-13.3-13.3-20-29.4-20-48.2c0-18.8,6.7-34.9,20-48.2  c13.3-13.3,29.4-20,48.2-20c12.9-0.2,25.6,3.2,36.6,9.9c10.6,6.3,19.3,15.3,25.1,26.2l-26,14.1c-7.9-14.4-19.8-21.6-35.7-21.6  c-10.3-0.1-20.2,4.1-27.2,11.7c-15,15.6-15,40.2,0,55.8c7,7.6,16.9,11.9,27.2,11.7c15.9,0,27.8-7.2,35.7-21.6l26,14.1  c-5.8,10.9-14.5,19.9-25.1,26.2C1571.9,1308.4,1559.2,1311.8,1546.4,1311.6z"></path>
<path class="st2" d="M1710.9,1309.4v-132h29.6v51.7h53.2v-51.7h29.6v132h-29.6v-52.2h-53.2v52.2H1710.9z"></path>
<path class="st2" d="M1936.5,1309.4v-132h83.6v28.2h-54.1v23.6h42.9v28.2h-42.9v23.6h54.1v28.2L1936.5,1309.4z"></path>
<path class="st2" d="M2247.5,1309.4H2222l-64.3-81.6v81.6h-29.6v-132h25.5l64.1,81.6v-81.6h29.7L2247.5,1309.4z"></path>
</svg>
