<svg xmlns="http://www.w3.org/2000/svg" width="4317" height="1037" fill="none" xmlns:v="https://vecta.io/nano"><g clip-path="url(#A)" fill="#fff"><path d="M1105.96 326.186c-34.62-72.633-100.26-119.551-199.174-119.551-30.36.529-60.193 8.026-87.198 21.908a198.27 198.27 0 0 0-68.555 58.168l-3.61 4.398V6.443a6.2 6.2 0 0 0-1.817-4.386C744.443.894 742.864.24 741.219.24H601.367a6.2 6.2 0 0 0-6.09 6.203v816.556a6.09 6.09 0 0 0 1.785 4.305c1.142 1.143 2.69 1.785 4.305 1.785h149.778c1.626 0 3.187-.637 4.347-1.778s1.826-2.687 1.856-4.312V474.835c0-67.67 45.113-115.604 117.295-115.604 78.949 0 98.912 64.964 98.912 131.167v332.601c0 1.615.641 3.163 1.783 4.305a6.09 6.09 0 0 0 4.307 1.785h149.435c1.63 0 3.19-.637 4.35-1.778a6.21 6.21 0 0 0 1.86-4.312v-352.45c0-12.068 0-23.911-1.58-35.414-2.57-37.698-11.97-74.616-27.75-108.949zm-747.867 121.02l-104.325-25.151c-28.084-7.218-77.145-22.557-77.145-59.663s39.587-48.949 79.739-48.949 84.814 9.7 88.31 54.25c.141 1.606.88 3.098 2.07 4.186s2.746 1.684 4.358 1.679l147.634-.564a6.32 6.32 0 0 0 2.526-.52c.797-.345 1.514-.851 2.107-1.487a6.31 6.31 0 0 0 1.338-2.204c.289-.819.408-1.69.345-2.557-9.135-142.558-134.213-193.536-249.591-193.536-136.807 0-236.846 90.227-236.846 189.702 0 72.633 20.527 140.755 181.92 188.124l100.379 28.309c40.376 11.279 62.143 28.309 62.143 55.151 0 31.128-45.113 52.782-89.437 52.782-64.174 0-109.739-23.797-113.461-66.543a6.43 6.43 0 0 0-2.141-4.043c-1.185-1.04-2.711-1.608-4.288-1.596l-147.295.677a6.42 6.42 0 0 0-2.513.511c-.795.337-1.514.83-2.114 1.452a6.43 6.43 0 0 0-1.378 2.162c-.309.806-.453 1.667-.423 2.53 6.767 134.551 136.694 207.07 257.825 207.07 180.454 0 261.996-101.504 261.996-196.581.226-44.663-10.038-146.394-161.732-185.191zM2257.37 206.409c-74.99 0-137.82 41.504-178.31 91.582v-85.717c0-1.596-.63-3.129-1.75-4.267-1.1-1.139-2.63-1.794-4.23-1.822h-140.07c-1.61 0-3.17.64-4.31 1.782a6.11 6.11 0 0 0-1.79 4.307v800.766c.04 1.59.7 3.12 1.84 4.23 1.14 1.12 2.67 1.75 4.26 1.75h149.89c1.58 0 3.1-.63 4.22-1.75s1.75-2.65 1.75-4.23V749.802h2.26c23.79 36.315 88.87 79.851 173.92 79.851 159.91 0 293.23-132.634 293.23-311.847.12-171.995-132.52-311.397-300.91-311.397zm-13.87 470.648c-31.56.784-62.67-7.857-89.3-24.819s-47.62-41.479-60.27-70.418a158.88 158.88 0 0 1-10.72-92.063c5.64-31.072 20.43-59.755 42.45-82.388a158.93 158.93 0 0 1 81.21-44.69 158.88 158.88 0 0 1 92.31 8.214 158.92 158.92 0 0 1 72.04 58.322c17.68 26.168 27.16 57.009 27.25 88.591.32 20.643-3.44 41.149-11.05 60.339s-18.95 36.686-33.35 51.483c-14.39 14.797-31.57 26.604-50.56 34.743-18.97 8.14-39.36 12.45-60.01 12.686zm-760.16-505.828c-139.74 0-209.44 47.482-265.39 85.491l-1.69 1.127c-2.88 1.974-4.91 4.966-5.69 8.374-.77 3.409-.23 6.983 1.52 10.01l55.26 95.188a14.09 14.09 0 0 0 4.15 4.482c1.7 1.17 3.63 1.951 5.67 2.286a13.63 13.63 0 0 0 5.98-.255c1.95-.527 3.76-1.478 5.3-2.791l4.39-3.608c28.76-24.136 74.89-56.393 186.55-65.19 62.14-4.961 115.83 11.279 155.41 48.272 43.54 40.152 69.6 105.002 69.6 173.462 0 125.98-74.22 205.153-193.43 206.733-98.24-.564-164.22-51.768-164.22-127.446 0-40.152 18.16-66.317 53.58-92.483 2.7-1.934 4.61-4.781 5.38-8.015s.34-6.637-1.21-9.579l-49.63-93.837a14.44 14.44 0 0 0-3.64-4.361 14.51 14.51 0 0 0-5.04-2.631 14 14 0 0 0-5.79-.466c-1.95.253-3.82.911-5.49 1.933-55.71 33.045-124.06 93.497-120.34 209.665 4.51 147.859 127.45 260.755 287.26 265.38h8.01 10.94c189.92-6.204 327.07-147.183 327.07-338.351 0-175.493-127.9-363.39-364.51-363.39zm1665.59 90.226h-95.2a8.58 8.58 0 0 0-5.94 2.509c-1.59 1.58-2.49 3.715-2.5 5.95v199.739c.01 2.225.92 4.346 2.51 5.908 1.58 1.562 3.71 2.439 5.93 2.439h95.2c57.97 0 100.72-45.678 100.72-108.273s-42.75-108.272-100.72-108.272zm292.45 353.347c0 28.985 24.47 45.113 67.1 45.113 57.97 0 92.25-31.354 92.25-86.957v-16.014l-86.83 4.511c-45.8 2.255-72.52 21.317-72.52 53.347zM4146.27 2.05H2867.3a159.64 159.64 0 0 0-61.13 12.167 159.49 159.49 0 0 0-51.82 34.648 159.6 159.6 0 0 0-34.62 51.85c-8.03 19.389-12.14 40.168-12.12 61.15v700.161a159.8 159.8 0 0 0 46.77 112.966c29.95 29.968 70.57 46.818 112.92 46.848h1278.97c21.01.06 41.83-4.02 61.26-12.01 19.42-7.99 37.08-19.737 51.97-34.557 14.87-14.823 26.7-32.434 34.78-51.828a160.06 160.06 0 0 0 12.27-61.193V162.09c.03-21.048-4.08-41.898-12.12-61.35a159.74 159.74 0 0 0-34.74-51.995c-14.89-14.873-32.58-26.655-52.04-34.668s-40.32-12.101-61.38-12.026zm-992.5 554.559h-100.6c-2.24 0-4.38.89-5.98 2.476-1.58 1.587-2.48 3.739-2.48 5.983v143.234a8.48 8.48 0 0 1-2.47 5.981c-1.59 1.587-3.74 2.478-5.98 2.478h-70.84c-2.22-.029-4.37-.93-5.95-2.511s-2.46-3.713-2.5-5.948V191.639c0-2.242.89-4.394 2.49-5.981 1.58-1.586 3.72-2.477 5.96-2.477h188.35c106.7 0 183.05 77.708 183.05 186.77s-75.79 186.882-182.47 186.882l-.58-.224zm530.09 151.581a8.16 8.16 0 0 1-.61 3.271 8.58 8.58 0 0 1-1.82 2.783c-.8.797-1.73 1.431-2.77 1.863-1.02.431-2.14.654-3.26.654h-66.88a8.45 8.45 0 0 1-3.26-.654c-1.04-.432-1.98-1.066-2.76-1.863a8.42 8.42 0 0 1-1.82-2.783c-.42-1.04-.63-2.151-.61-3.271v-15.451c.1-1.357-.22-2.713-.95-3.865-.71-1.154-1.78-2.045-3.06-2.54-1.26-.494-2.65-.565-3.96-.203a6.22 6.22 0 0 0-3.31 2.209c-19.97 21.767-52.45 37.556-104.22 37.556-76.23 0-126.66-39.699-126.66-108.272-.73-16.72 2.72-33.359 10.05-48.408 7.32-15.046 18.3-28.026 31.92-37.758 27.51-20.64 70.14-31.354 133.41-33.836l67.1-2.255v-19.626c0-39.587-26.61-56.391-69.36-56.391-42.74 0-69.7 15.113-76 39.813-.51 1.744-1.58 3.27-3.06 4.333-1.46 1.064-3.25 1.602-5.07 1.531h-66.2a8.38 8.38 0 0 1-3.55-.693c-1.1-.488-2.11-1.214-2.92-2.128-.8-.915-1.4-1.992-1.74-3.162-.35-1.169-.44-2.398-.25-3.603 9.93-58.648 58.42-103.198 161.85-103.198 109.85 0 149.43 51.092 149.43 148.649l.34 207.298zm416.63-335.195l-148.87 397.113c-33.84 92.256-93.06 115.942-157.91 115.942-12.21.298-24.41-1.184-36.2-4.398-1.84-.495-3.45-1.579-4.63-3.089-1.15-1.507-1.78-3.355-1.8-5.258v-60.34a8.69 8.69 0 0 1 .8-3.654c.54-1.144 1.31-2.157 2.28-2.964a8.65 8.65 0 0 1 3.33-1.71c1.22-.318 2.5-.363 3.74-.131 10.23 1.94 20.61 2.922 31.02 2.934a80.23 80.23 0 0 0 50.32-14.615 80.24 80.24 0 0 0 30.54-42.567l4.41-13.873c.68-1.856.68-3.894 0-5.752l-139.19-357.524a8.63 8.63 0 0 1-.34-3.972c.21-1.333.72-2.6 1.48-3.698a8.73 8.73 0 0 1 3.01-2.625c1.19-.627 2.52-.965 3.86-.984h67.68c1.73.017 3.41.551 4.84 1.537a8.66 8.66 0 0 1 3.16 3.99l94.52 252.185c.63 1.647 1.73 3.066 3.18 4.067 1.46 1.003 3.17 1.538 4.94 1.538 1.75 0 3.49-.535 4.93-1.538 1.45-1.001 2.57-2.42 3.18-4.067l82.01-251.508c.54-1.715 1.63-3.209 3.09-4.264a8.41 8.41 0 0 1 5.01-1.601h69.38c1.33-.006 2.65.306 3.86.904 1.19.6 2.24 1.472 3.04 2.547a8.55 8.55 0 0 1 1.56 3.643 8.42 8.42 0 0 1-.23 3.958v-.226z"/></g><defs><clipPath id="A"><path fill="#fff" transform="translate(0 .24)" d="M0 0h4317v1036.76H0z"/></clipPath></defs></svg>