<svg id="Routine" xmlns="http://www.w3.org/2000/svg" viewBox="0 0 300 300"><defs><style>.cls-1,.cls-2{fill:#3d5164;}.cls-1{stroke:#3b5264;stroke-miterlimit:10;}</style></defs><path class="cls-1" d="M194.81,105.16h-13V98a2.48,2.48,0,1,0-5,0v7.12H123.12V98a2.48,2.48,0,1,0-5,0v7.12h-13a12.39,12.39,0,0,0-12.38,12.38v74.52a12.4,12.4,0,0,0,12.38,12.38h89.62a12.4,12.4,0,0,0,12.38-12.38V117.54A12.39,12.39,0,0,0,194.81,105.16Zm-89.62,5h13V123a2.48,2.48,0,0,0,5,0V110.11h53.76V123a2.48,2.48,0,0,0,5,0V110.11h13a7.43,7.43,0,0,1,7.43,7.43v21.07H97.76V117.54A7.43,7.43,0,0,1,105.19,110.11Zm89.62,89.38H105.19a7.44,7.44,0,0,1-7.43-7.43v-48.5H202.24v48.5A7.44,7.44,0,0,1,194.81,199.49Z"/><path class="cls-1" d="M166.05,156.63l-20.76,19.84L134.76,166a2.47,2.47,0,0,0-3.5,3.5l12.24,12.24a2.49,2.49,0,0,0,3.46,0l22.51-21.52a2.48,2.48,0,1,0-3.42-3.58Z"/><path class="cls-2" d="M150,264.74A114.74,114.74,0,1,1,264.74,150,114.87,114.87,0,0,1,150,264.74Zm0-221.83A107.09,107.09,0,1,0,257.09,150,107.21,107.21,0,0,0,150,42.91Z"/></svg>