<svg width="48px" height="48px" viewBox="0 0 48 48" version="1.1" aria-labelledby="hassle-return1-title" xmlns="http://www.w3.org/2000/svg" xmlns:xlink="http://www.w3.org/1999/xlink">
<title id="hassle-return1-title">Hassle Return</title>
  <g opacity="0.6">
    <path d="M0.430064 0.050829C0.540778 0.00581066 0.663175 -0.0104749 0.785665 0.00668497C0.908155 0.0238448 1.02137 0.0731369 1.11545 0.146845C1.20953 0.220554 1.28448 0.318678 1.33023 0.432955C1.56928 1.01978 1.83659 1.60426 2.12549 2.17028C2.23756 2.38982 2.22399 2.65247 2.0899 2.8593C1.95581 3.06613 1.72156 3.18571 1.4754 3.17299C1.35231 3.16664 1.2356 3.12769 1.13565 3.06289C1.0357 2.99809 0.952515 2.90743 0.896481 2.79767C0.589655 2.19668 0.305396 1.5763 0.0522261 0.953257C0.00502292 0.838932 -0.00977101 0.716346 0.0061751 0.597898C0.0221212 0.479451 0.0688073 0.365141 0.144564 0.26737C0.220321 0.169599 0.319351 0.0958474 0.430064 0.050829Z" transform="translate(1.6846989 32.086674)" fill="#FFFFFF" stroke="none"></path>
    <path d="M0.542065 0.0161766C0.726378 -0.0242716 0.90984 0.0130786 1.05796 0.106478C1.20608 0.199877 1.31885 0.349326 1.36179 0.533074C1.49828 1.15333 1.66235 1.77508 1.85157 2.38237C1.88817 2.50011 1.89197 2.62313 1.86571 2.73937C1.83946 2.8556 1.78313 2.96504 1.69947 3.0556C1.61581 3.14617 1.51117 3.21098 1.39738 3.24635C1.28359 3.28173 1.16065 3.28767 1.04039 3.2605C0.799871 3.20617 0.606608 3.02764 0.533398 2.79215C0.333077 2.14724 0.158491 1.4873 0.0143865 0.830117C-0.0238354 0.643984 0.0159962 0.461045 0.111393 0.314205C0.20679 0.167366 0.357752 0.0566248 0.542065 0.0161766L0.542065 0.0161766Z" transform="translate(0.51884454 28.33833)" fill="#FFFFFF" stroke="none"></path>
    <path d="M0.656793 0.00117951C0.84016 -0.00961023 1.02015 0.0539745 1.15606 0.17758C1.29211 0.301322 1.37246 0.474737 1.37891 0.658531C1.40955 1.2953 1.46684 1.93482 1.55003 2.56264C1.5749 2.7515 1.52088 2.93258 1.41342 3.07266C1.30597 3.21274 1.14508 3.31184 0.955778 3.33681C0.77447 3.35989 0.591081 3.3108 0.445949 3.19953C0.300677 3.08816 0.205616 2.92363 0.181702 2.7422C0.0938183 2.07833 0.032853 1.39901 0.000789322 0.723301C-0.0079582 0.540494 0.0562852 0.361702 0.179382 0.22627C0.302404 0.0909201 0.474132 0.00996166 0.656793 0.00117951Z" transform="translate(0 24.42789)" fill="#FFFFFF" stroke="none"></path>
    <path d="M0.4405 0.046689C0.555411 0.00212497 0.677845 -0.0100944 0.795563 0.00813555C0.913281 0.0263655 1.02628 0.0750449 1.12241 0.152339C1.61741 0.551171 2.13519 0.932728 2.66142 1.28826C2.81361 1.39058 2.9188 1.54929 2.95376 1.72932C2.98871 1.90935 2.95055 2.09589 2.84766 2.2478C2.74077 2.40532 2.58019 2.50467 2.40691 2.53796C2.23364 2.57125 2.04767 2.53848 1.89021 2.43191C1.33123 2.05543 0.782551 1.64966 0.257614 1.22766C0.161565 1.15042 0.0897661 1.0505 0.0466947 0.939441C0.00362322 0.828379 -0.0107206 0.706176 0.00814118 0.584378C0.0270029 0.462581 0.0776374 0.35044 0.152284 0.257608C0.226931 0.164777 0.32559 0.0912531 0.4405 0.046689L0.4405 0.046689Z" transform="translate(8.674941 41.47)" fill="#FFFFFF" stroke="none"></path>
    <path d="M0.672015 0.000233839C0.796893 -0.00301163 0.917771 0.0276257 1.02338 0.0859249C1.12897 0.144213 1.21929 0.230154 1.28314 0.337569C1.61814 0.873685 1.98094 1.4043 2.35963 1.91549C2.43329 2.01433 2.47778 2.12907 2.49167 2.24739C2.50556 2.36572 2.48884 2.48764 2.44007 2.60085C2.3913 2.71406 2.31418 2.80996 2.21866 2.88115C2.12313 2.95234 2.00918 2.99882 1.88675 3.01319C1.76433 3.02756 1.64272 3.00872 1.5333 2.96159C1.42388 2.91445 1.32666 2.83901 1.253 2.74018C0.850032 2.19945 0.466852 1.63578 0.110584 1.06459C0.0431138 0.960256 0.00630406 0.841808 0.00074209 0.721911C-0.00484785 0.60141 0.0211251 0.479445 0.0792576 0.368874C0.13739 0.258303 0.22314 0.167766 0.325576 0.10406C0.428013 0.040354 0.547136 0.00347931 0.672015 0.000233839L0.672015 0.000233839Z" transform="translate(3.4678576 35.587437)" fill="#FFFFFF" stroke="none"></path>
    <path d="M0.702354 0.00011517L0.73176 0.0012748C0.908012 0.0119706 1.08018 0.0899042 1.20639 0.232423C1.62845 0.707476 2.07484 1.17115 2.5338 1.61004C2.62574 1.69389 2.69153 1.79927 2.72739 1.914C2.7635 2.02955 2.76923 2.1546 2.74071 2.27672C2.71218 2.39884 2.65165 2.50841 2.56808 2.59601C2.48452 2.68361 2.37792 2.74924 2.25729 2.78349C2.13665 2.81774 2.01147 2.81791 1.89434 2.78729C1.77722 2.75667 1.66816 2.69527 1.57965 2.60635C1.0938 2.14254 0.620603 1.65189 0.173436 1.14739C0.047121 1.00476 -0.009421 0.824426 0.0012748 0.648174C0.0119706 0.471922 0.0899042 0.299751 0.23254 0.173436C0.375177 0.047121 0.555509 -0.009421 0.73176 0.0012748L0.702354 0.00011517Z" transform="translate(5.8264875 38.75263)" fill="#FFFFFF" stroke="none"></path>
    <path d="M19.7551 0C24.6529 0.000717416 29.3047 1.48977 33.1889 4.11468C37.0731 6.73958 40.1896 10.5003 42.017 15.0445C43.8444 19.5886 44.1992 24.46 43.2138 29.0432C42.2283 33.6264 39.9025 37.9215 36.3689 41.3129C32.8352 44.7043 28.4482 46.8516 23.8284 47.648C19.2086 48.4444 14.3559 47.8898 9.89062 45.8773C9.27778 45.601 8.66811 45.2934 8.07842 44.9643C7.96987 44.9047 7.88146 44.8183 7.81968 44.7158C7.75789 44.6134 7.72273 44.4948 7.72068 44.371C7.71863 44.2472 7.74984 44.1276 7.80819 44.0231C7.86655 43.9186 7.95204 43.8293 8.05855 43.7662C8.16507 43.703 8.28442 43.6708 8.40407 43.6697C8.52372 43.6685 8.64366 43.6985 8.75076 43.7594C9.30657 44.0702 9.88121 44.3591 10.4581 44.6197C15.8974 47.069 21.8202 47.1944 27.0805 45.3893C32.3408 43.5841 36.9386 39.8484 39.7279 34.5754C42.5172 29.3024 43.0179 23.3995 41.55 18.0353C40.0821 12.6711 36.6455 7.84562 31.56 4.72756C26.4745 1.6095 20.6152 0.735382 15.1687 1.86016C9.72221 2.98495 4.68853 6.10863 1.25423 10.9862C1.14449 11.142 0.981998 11.2385 0.807997 11.2687C0.633996 11.2989 0.448485 11.2626 0.292706 11.1529C0.136927 11.0432 0.0403758 10.8807 0.0102034 10.7067C-0.019969 10.5327 0.0162378 10.3472 0.125992 10.1914C4.62555 3.80798 11.9451 0.00764832 19.7551 0Z" transform="translate(4.214855 4.4821094E-14)" fill="#FFFFFF" stroke="none"></path>
    <path d="M0.580507 0.00884106C0.765216 -0.020852 0.944926 0.0257736 1.08706 0.125794C1.22952 0.226042 1.33424 0.379928 1.36841 0.564371L1.36841 0.564371L1.86172 3.61966C1.87822 3.71842 1.93293 3.80134 2.00824 3.85573C2.08356 3.91011 2.17949 3.93595 2.27792 3.92062L2.27792 3.92062L5.33378 3.4284C5.51966 3.40303 5.69863 3.45424 5.83849 3.55811C5.97802 3.66174 6.07862 3.81778 6.10831 4.00249C6.13801 4.1872 6.09138 4.36691 5.99136 4.50905C5.89111 4.65151 5.73722 4.75623 5.55276 4.7904L5.55276 4.7904L2.49694 5.28261C2.40476 5.29748 2.31153 5.30488 2.2181 5.30477C1.79086 5.30397 1.39532 5.14857 1.08943 4.88795C0.783535 4.62733 0.567296 4.26149 0.498638 3.83963L0.498638 3.83963L0.0064177 0.783371C-0.0189545 0.597493 0.0322551 0.418522 0.136128 0.278663C0.239756 0.139134 0.395799 0.0385341 0.580507 0.00884106Z" transform="translate(2.3809273 7.394439)" fill="#FFFFFF" stroke="none"></path>
    <path d="M17.2591 0.211577L17.2964 0.230802L31.6655 7.80309C31.9936 7.97524 32.2604 8.2314 32.445 8.53716C32.6215 8.82962 32.7229 9.16746 32.731 9.52046L32.7315 9.56869L32.7315 26.4129C32.732 26.7835 32.6297 27.139 32.4451 27.4448C32.2682 27.7379 32.0158 27.9854 31.7063 28.157L31.6656 28.179L17.2964 35.7513C16.7264 36.0517 16.0474 36.0581 15.4728 35.7705L15.4355 35.7513L1.06559 28.179C0.737464 28.0068 0.470761 27.7505 0.286242 27.4447C0.109745 27.1522 0.00844148 26.8143 0.000503968 26.4613L2.00207e-06 26.413L2.10578e-06 9.56884C-0.000535368 9.19833 0.101833 8.843 0.286349 8.53724C0.463178 8.24423 0.715451 7.99674 1.02478 7.82512L1.06545 7.80317L15.4354 0.230864C16.0052 -0.0703952 16.6847 -0.076805 17.2591 0.211577L17.2591 0.211577ZM31.3516 9.90331L17.2681 17.0315L17.2159 17.0565C17.1633 17.0807 17.1099 17.1025 17.0557 17.1219L17.0557 17.1219L17.0557 34.3184L31.0226 26.9563L31.0475 26.9425C31.1373 26.8899 31.2107 26.8165 31.2629 26.7302C31.3198 26.6361 31.3515 26.5267 31.3516 26.4126L31.3516 26.4126L31.3516 9.90331ZM1.37988 9.90289L1.37988 26.4142L1.38066 26.4452C1.38585 26.5481 1.41672 26.6463 1.46848 26.7319C1.52541 26.826 1.60761 26.9048 1.70869 26.9577L1.70869 26.9577L15.6758 34.3176L15.6762 17.1215L15.6226 17.1014C15.5694 17.0806 15.517 17.0573 15.4658 17.0317L15.4658 17.0317L11.0008 14.7723L11.0008 21.1928L11.0002 21.2338C10.9923 21.4929 10.91 21.7382 10.7704 21.9448C10.6234 22.1622 10.4129 22.3366 10.1584 22.4387C9.90403 22.5409 9.63132 22.5606 9.3748 22.5053C9.11853 22.45 8.87841 22.3198 8.68883 22.1222L8.68883 22.1222L7.37626 20.7943L6.58579 20.9643L6.54968 20.9715C6.1641 21.0434 5.76561 20.9431 5.45958 20.6959C5.14399 20.4409 4.96054 20.057 4.96046 19.6513L4.96046 19.6513L4.96046 12.0765L4.96185 12.0185C4.96556 11.9219 4.97624 11.826 4.99382 11.7315L4.99382 11.7315L1.37988 9.90289ZM21.5185 4.01543L6.67699 11.527L6.65135 11.5406C6.55886 11.5925 6.4833 11.6663 6.42965 11.7535C6.37112 11.8487 6.33867 11.96 6.33915 12.0761L6.33915 12.0761L6.33915 19.6068L7.13765 19.4347L7.17268 19.4277C7.61688 19.3455 8.07352 19.4905 8.38895 19.8155L8.38895 19.8155L9.62051 20.9655L9.62051 14.4349L9.62092 14.388C9.62832 14.0285 9.73277 13.6849 9.91476 13.3888C10.1047 13.0799 10.379 12.823 10.7157 12.6539L10.7157 12.6539L24.5879 5.63309L21.5185 4.01543ZM26.0847 6.42193L11.8215 13.6413L16.0881 15.8006L16.1134 15.8126C16.2828 15.8887 16.478 15.8847 16.6447 15.8009L16.6447 15.8009L30.5383 8.76858L26.0847 6.42193ZM16.6286 1.43881C16.454 1.35664 16.2502 1.36075 16.0785 1.45116L16.0785 1.45116L2.19351 8.76818L5.68816 10.5372L5.73094 10.5026C5.83183 10.4234 5.94025 10.3541 6.05469 10.2958L6.05469 10.2958L20.0217 3.2262L16.6533 1.45114L16.6286 1.43881Z" transform="translate(7.6235056 6.0045977)" fill="#FFFFFF" stroke="none"></path>
  </g>
</svg>