<svg width="48px" height="47px" viewBox="0 0 48 47" version="1.1" aria-labelledby="free-ship1-title" xmlns="http://www.w3.org/2000/svg" xmlns:xlink="http://www.w3.org/1999/xlink">
<title id="free-ship1-title">Free Shipping</title>
  <g id="Shape-2" opacity="0.6">
    <path d="M36.2652 0C36.5043 0 36.7209 0.0969413 36.8776 0.253677C37.0344 0.410412 37.1313 0.626945 37.1313 0.866136C37.1313 1.10533 37.0344 1.32186 36.8776 1.4786C36.7277 1.62852 36.5231 1.72373 36.2962 1.73173L36.2652 1.73227L31.2403 1.73227L32.0464 5.21589L45.8655 5.21589L44.5047 1.73227L41.2517 1.73227C41.0125 1.73227 40.7959 1.63533 40.6392 1.4786C40.4825 1.32186 40.3855 1.10533 40.3855 0.866136C40.3855 0.626945 40.4825 0.410412 40.6392 0.253677C40.7891 0.103756 40.9937 0.00854271 41.2206 0.000546708L41.2517 0L44.6976 0C44.9983 0 45.281 0.0907124 45.516 0.251184C45.7408 0.404685 45.9221 0.622111 46.0332 0.885823L46.0479 0.92207L47.9415 5.76954C47.9547 5.80661 47.9621 5.83009 47.9687 5.85402C47.9819 5.90692 47.9859 5.92952 47.9893 5.95242C47.9963 6.00292 47.998 6.02856 47.9987 6.05237L47.999 6.06126L48 40.057C48 40.7273 47.7274 41.3352 47.2872 41.7754C46.8567 42.2059 46.2659 42.4761 45.6133 42.4879L45.5687 42.4883L32.7794 42.4883C32.5083 42.8565 32.1415 43.1496 31.7047 43.3383C31.3153 43.5064 30.892 43.5784 30.4743 43.554C30.4821 43.9032 30.4201 44.2594 30.2801 44.6029C30.0752 45.1053 29.7318 45.5104 29.312 45.7922C28.8796 46.0825 28.3659 46.2419 27.8388 46.2419C27.5265 46.2419 27.2096 46.186 26.9019 46.0683L26.8477 46.0469L18.1205 42.4884L7.88043 42.4884C7.21008 42.4884 6.60221 42.2158 6.16195 41.7756C5.73146 41.3451 5.46128 40.7543 5.44949 40.1017L5.44909 40.0571L5.44909 38.3362C5.44909 38.097 5.54603 37.8805 5.70276 37.7238C5.8595 37.567 6.07603 37.4701 6.31522 37.4701C6.55441 37.4701 6.77095 37.567 6.92768 37.7238C7.0776 37.8737 7.17282 38.0783 7.18081 38.3052L7.18136 38.3362L7.18136 40.0571C7.18136 40.2498 7.25985 40.4245 7.38643 40.5511C7.50667 40.6713 7.67036 40.7482 7.85166 40.7555L7.88043 40.7561L13.872 40.7561L13.8033 40.7281C12.3886 40.1513 11.1356 39.2163 10.1797 38.0243C10.1315 37.9642 10.0823 37.9049 10.0323 37.8465C9.93212 37.7295 9.82837 37.6157 9.72108 37.5056C9.61376 37.3953 9.50308 37.2886 9.38914 37.1854C8.78362 36.6372 8.08717 36.1919 7.33188 35.8736L7.25354 35.8411L6.57913 35.566L6.5678 35.5894C6.45186 35.8197 6.28386 36.0098 6.08426 36.1511L6.05249 36.173C5.79962 36.3427 5.49925 36.4359 5.19104 36.4359C5.01253 36.4359 4.83149 36.4047 4.65541 36.339L4.6115 36.3219L0.958559 34.8324C0.565436 34.6721 0.274086 34.3668 0.121155 34.0033C-0.0269941 33.6512 -0.0452132 33.2445 0.099523 32.862L0.11404 32.8251L4.58073 21.8704C4.73606 21.4896 5.03032 21.192 5.40951 21.0325C5.77641 20.8782 6.18036 20.871 6.55111 21.0115L6.58807 21.0261L10.2409 22.5155C10.5267 22.632 10.7655 22.8269 10.9344 23.077C10.9906 23.1603 11.0391 23.2497 11.079 23.3443C11.2333 23.7112 11.2404 24.115 11.1 24.4859L11.0854 24.5229L11.0248 24.6714L11.0388 24.6727C11.574 24.7188 13.0498 24.6475 17.5361 23.8253L17.6819 23.7985C17.7667 23.7829 17.8529 23.7669 17.9399 23.7508C18.156 23.7106 18.3784 23.6689 18.6079 23.6253C18.674 23.6128 18.6968 23.6084 18.7199 23.604C18.8499 23.5793 18.9824 23.5538 19.1167 23.528C19.2847 23.4957 19.455 23.4628 19.6299 23.4287C23.5571 22.6629 27.318 21.8177 27.3837 21.8029C28.1324 21.6455 28.8736 21.8418 29.4282 22.2763C29.8023 22.5694 30.0915 22.9705 30.2375 23.4458C30.4329 24.0816 30.3519 24.7381 30.0632 25.2848C29.7809 25.8194 29.3001 26.2489 28.6852 26.4515L28.6431 26.465L24.2127 27.8363L34.316 31.9559C34.3973 31.989 34.4764 32.0259 34.5531 32.0663C35.0905 32.3495 35.5102 32.8057 35.7488 33.373C36.0216 34.0213 36.0255 34.737 35.7599 35.3884C35.6341 35.697 35.4548 35.9735 35.232 36.2082L35.2259 36.2145L35.235 36.2208C35.2839 36.2554 35.3204 36.2825 35.3547 36.3096L35.3692 36.3212C35.4241 36.3653 35.4718 36.4079 35.5184 36.4517C35.5899 36.5201 35.6325 36.5643 35.6736 36.6101C35.7391 36.6852 35.779 36.7335 35.8169 36.7838C35.8577 36.838 35.8938 36.8913 35.9287 36.9457C35.9816 37.03 36.0126 37.0839 36.0417 37.1392C36.0884 37.2307 36.1162 37.2893 36.1417 37.3497C36.4144 37.9979 36.4183 38.7136 36.1528 39.3649C35.9079 39.9656 35.465 40.4273 34.9299 40.7053L34.8906 40.7253L45.5686 40.7562C45.7516 40.7562 45.9185 40.6854 46.0432 40.5698L46.0626 40.5512C46.1828 40.4309 46.2597 40.2672 46.2671 40.0859L46.2676 40.0572L46.2676 6.94816L32.2239 6.94816L32.2239 19.8903C32.2239 20.1289 32.1536 20.357 32.0289 20.5498C31.9043 20.7427 31.7251 20.9004 31.5075 20.9984C31.2898 21.0964 31.0529 21.1259 30.8258 21.0913C30.6114 21.0586 30.4057 20.9688 30.2331 20.8256L30.203 20.7997L26.7245 17.7181L23.2459 20.7998C23.0197 21.0003 22.7312 21.1052 22.4394 21.1052C22.2708 21.1052 22.101 21.0702 21.9416 20.9984C21.724 20.9005 21.5448 20.7428 21.4201 20.5499C21.3023 20.3678 21.2331 20.1542 21.2258 19.9299L21.2251 19.8903L21.2251 6.94816L7.18127 6.94816L7.18127 18.8642C7.18127 19.1034 7.08432 19.3199 6.92759 19.4767C6.77085 19.6334 6.55432 19.7303 6.31513 19.7303C6.07594 19.7303 5.85941 19.6334 5.70267 19.4767C5.55275 19.3267 5.45754 19.1221 5.44954 18.8953L5.44899 18.8642L5.44899 6.07842C5.45079 6.03019 5.45251 6.0055 5.45532 5.98101C5.46365 5.92548 5.46794 5.9036 5.47303 5.88201C5.48618 5.83211 5.49379 5.80807 5.50153 5.78683L5.50445 5.77894L7.401 0.922251C7.51044 0.642115 7.69782 0.411724 7.93282 0.251221C8.1576 0.0976973 8.42608 0.00802052 8.71218 0.000512754L8.75131 0L36.2652 0ZM28.2878 23.5857C28.1444 23.4995 27.9692 23.4643 27.7529 23.4955C27.5083 23.5504 23.7502 24.3921 19.8581 25.1491C19.7186 25.1762 19.5817 25.2027 19.4175 25.2343C19.3815 25.2412 19.3461 25.2479 19.3105 25.2548C19.2221 25.2717 19.1341 25.2886 19.0476 25.3051C19.0214 25.3101 18.9955 25.315 18.9697 25.3199C18.9387 25.3257 18.9078 25.3316 18.8768 25.3375C18.8058 25.351 18.7352 25.3643 18.6654 25.3774C18.6224 25.3855 18.5796 25.3936 18.5369 25.4016C18.5144 25.4058 18.4919 25.41 18.4695 25.4142C18.4123 25.4249 18.3556 25.4356 18.2992 25.446C18.2617 25.453 18.2242 25.4599 18.1869 25.4668C18.1522 25.4732 18.1177 25.4797 18.0444 25.4932C18.0195 25.4978 17.9949 25.5023 17.9702 25.5068C16.4415 25.7881 15.1319 26.0062 14.0642 26.157C12.4808 26.3807 11.5963 26.4353 11.0616 26.4112L11.0616 26.4112L11.0247 26.4097C10.6626 26.3932 10.4876 26.3423 10.3715 26.2982L10.3715 26.2982L10.3632 26.295L8.846 30.016L7.23654 33.9632L7.90759 34.2368L7.99323 34.2722C8.93304 34.667 9.79943 35.22 10.5523 35.9016C10.905 36.2208 11.2327 36.5682 11.5314 36.9407C11.8209 37.3017 12.1441 37.6333 12.4953 37.9316C13.0806 38.4288 13.7436 38.8329 14.4576 39.124L14.4576 39.124L18.6187 40.8209L27.5019 44.443L27.532 44.4547C27.7534 44.536 27.9878 44.5244 28.1911 44.4389C28.4038 44.3494 28.5824 44.179 28.6762 43.9489C28.7704 43.7179 28.761 43.4699 28.6656 43.2551C28.5702 43.0403 28.3892 42.8592 28.1417 42.7584L28.1417 42.7584L21.53 40.0625L21.5015 40.0502C21.2944 39.9571 21.1409 39.7917 21.0587 39.5962C20.9727 39.3919 20.9648 39.1548 21.0551 38.9333C21.1453 38.7118 21.3168 38.5479 21.5211 38.462C21.7254 38.376 21.9625 38.368 22.1841 38.4583L22.1841 38.4583L28.8361 41.1706L30.2764 41.7579L30.306 41.7694C30.5342 41.8534 30.7918 41.8456 31.0179 41.7481C31.2351 41.6543 31.3897 41.4781 31.5465 41.0271C31.5457 41.0065 31.5435 40.9511 31.5384 40.7912C31.5332 40.775 31.5165 40.7237 31.46 40.5458C31.4526 40.5327 31.4353 40.5024 31.3412 40.3591C31.3376 40.355 31.3335 40.3505 31.3264 40.3434L31.3264 40.3434L31.3182 40.3352C31.3011 40.3184 31.2717 40.2899 31.2157 40.2357C31.2053 40.2275 31.1903 40.2168 31.1484 40.1863C31.1337 40.1768 31.1167 40.1671 31.0723 40.1413C31.0469 40.1279 31.0207 40.1157 30.9936 40.1047L30.9936 40.1047L22.8645 36.7901L22.836 36.7779C22.6289 36.6848 22.4754 36.5193 22.3931 36.3239C22.3072 36.1196 22.2992 35.8824 22.3895 35.661C22.4798 35.4395 22.6513 35.2756 22.8556 35.1896C23.0599 35.1036 23.2971 35.0956 23.5185 35.1859L23.5185 35.1859L31.6497 38.5014L32.4302 38.8197L33.3748 39.2048L33.407 39.2171C33.4499 39.2326 33.4934 39.2443 33.537 39.2531C33.8061 39.3075 34.0808 39.2337 34.3017 39.0528C34.3335 39.0257 34.3632 38.9961 34.3911 38.9644C34.4362 38.913 34.4768 38.8567 34.51 38.7943C34.5243 38.7675 34.5373 38.7397 34.5491 38.7109C34.5604 38.6829 34.5704 38.6546 34.579 38.626C34.6383 38.4269 34.6269 38.2153 34.5453 38.0214C34.4754 37.8551 34.3602 37.7167 34.213 37.6197C34.1638 37.5872 34.1111 37.5594 34.0553 37.5367L34.0553 37.5367L24.1989 33.5177L24.1703 33.5055C23.9632 33.4124 23.8097 33.247 23.7275 33.0516C23.6415 32.8472 23.6335 32.6101 23.7238 32.3886C23.8141 32.1671 23.9857 32.0032 24.19 31.9172C24.3943 31.8312 24.6314 31.8232 24.8529 31.9136L24.8529 31.9136L33.1697 35.282L33.1755 35.2829C33.1898 35.2849 33.2094 35.2874 33.2433 35.2918C33.27 35.2942 33.2968 35.2952 33.3283 35.2954C33.4448 35.2946 33.5611 35.2709 33.6716 35.2244C33.8934 35.1312 34.0654 34.9571 34.1563 34.7342C34.2472 34.5115 34.2458 34.2666 34.1526 34.0448C34.0593 33.823 33.8852 33.6509 33.6624 33.5601L33.6624 33.5601L21.3179 28.5265L21.2865 28.513C21.1313 28.4425 21.004 28.3297 20.9157 28.1919C20.8215 28.045 20.7716 27.8695 20.7795 27.6868C20.7874 27.5041 20.8523 27.3337 20.9589 27.1954C21.0655 27.0572 21.2139 26.9511 21.3887 26.897L21.3887 26.897L28.1312 24.8101L28.1589 24.8009C28.2682 24.7619 28.3619 24.6973 28.4352 24.6159C28.5178 24.5242 28.5746 24.4114 28.599 24.2902C28.6208 24.1821 28.6167 24.0672 28.5821 23.9546C28.5334 23.7961 28.4252 23.6684 28.2878 23.5857ZM6.11214 22.7028L1.79069 33.301L5.08734 34.6452L9.40878 24.0471L6.11214 22.7028ZM30.4918 6.94816L22.9575 6.94816L22.9575 18.7412L25.9188 16.1176L25.9467 16.0937C26.1716 15.9062 26.4481 15.8124 26.7246 15.8124C27.0125 15.8124 27.3005 15.9142 27.5302 16.1176L27.5302 16.1176L30.4918 18.7412L30.4918 6.94816ZM29.4622 1.73227L23.9867 1.73227L23.1806 5.21589L30.2683 5.21589L29.4622 1.73227ZM22.2087 1.73227L8.94423 1.73227L7.58344 5.21589L21.4026 5.21589L22.2087 1.73227Z" transform="matrix(1 0 0 1 0 -2.2595258E-13)" fill="#FFFFFF" stroke="none"></path>
  </g>
</svg>