<svg width="38px" height="48px" viewBox="0 0 38 48" version="1.1" aria-labelledby="limited-warranty1-title" xmlns="http://www.w3.org/2000/svg" xmlns:xlink="http://www.w3.org/1999/xlink">
<title id="limited-warranty1-title">Limited Warranty</title>
  <g opacity="0.6">
    <path d="M36.8571 8.5715C29.754 8.5715 22.6491 5.20979 19.5797 0.396074C19.4223 0.149343 19.1498 5.70972e-16 18.8571 0C18.5645 -5.70972e-16 18.292 0.149343 18.1346 0.396074C15.0651 5.20979 7.96029 8.5715 0.857143 8.5715C0.383756 8.5715 0 8.95526 0 9.42865L0 26.5715C0 37.9912 11.1283 46.0938 18.6489 47.9744C18.7856 48.0086 18.9287 48.0086 19.0654 47.9744C26.586 46.0938 37.7143 37.9912 37.7143 26.5715L37.7143 9.42865C37.7143 8.95526 37.3305 8.5715 36.8571 8.5715ZM36 26.5715C36 37.3321 24.954 44.6315 18.8571 46.2575C12.7603 44.6315 1.71429 37.3321 1.71429 26.5715L1.71429 10.2704C8.57657 10.0261 15.3429 6.88036 18.8571 2.34265C22.3714 6.88036 29.1369 10.0261 36 10.2704L36 26.5715ZM6 24.0001C6 31.1009 11.7563 36.8572 18.8571 36.8572C25.9579 36.8572 31.7143 31.1009 31.7143 24.0001C31.7143 16.8993 25.9579 11.1429 18.8571 11.1429C11.7597 11.151 6.00803 16.9026 6 24.0001L6 24.0001ZM30 24.0001C30 30.1541 25.0112 35.1429 18.8571 35.1429C12.7031 35.1429 7.71429 30.1541 7.71429 24.0001C7.71429 17.846 12.7031 12.8572 18.8571 12.8572C25.0082 12.8643 29.9929 17.849 30 24.0001L30 24.0001ZM13.9491 27.6961L23.394 18.2512C23.7303 17.9264 24.2649 17.931 24.5956 18.2617C24.9262 18.5923 24.9308 19.1269 24.606 19.4632L14.3203 29.7489C14.1596 29.9097 13.9416 30 13.7143 30.0001C13.6683 30.0002 13.6225 29.9965 13.5771 29.9889C13.3049 29.945 13.0705 29.7727 12.9471 29.5261L11.2329 26.0975C11.0213 25.6738 11.1932 25.1588 11.6169 24.9472C12.0405 24.7356 12.5555 24.9075 12.7671 25.3312L13.9491 27.6961Z" transform="translate(0 -7.408986E-05)" fill="#FFFFFF" stroke="none"></path>
  </g>
</svg>